<?xml version="1.0" encoding="utf-8"?>

<!DOCTYPE svg PUBLIC "-//W3C//DTD SVG 1.1//EN" "http://www.w3.org/Graphics/SVG/1.1/DTD/svg11.dtd">
<svg version="1.1" id="Layer_1" xmlns="http://www.w3.org/2000/svg" xmlns:xlink="http://www.w3.org/1999/xlink" x="0px" y="0px"
	 viewBox="0 0 1505.222 1657.031" enable-background="new 0 0 1505.222 1657.031" xml:space="preserve">
<g>
	<path d="M792.111,765.588c58.076-4.73,95.675-2.941,112.421-21.479c15.235-16.866,5.036-69.346-52.807-85.768
		c-21.18-6.013-51.429-3.044-67.971,6.671c-8.966,5.266-7.934,8.935-6.76,101.807L792.111,765.588L792.111,765.588z"/>
	<path d="M691.131,675.297c-50.585,8.146-99.823,78.558-63.893,102.335c23.947,15.847,65.316,4.117,97.288,15.781
		c7.337,2.677,14.584,5.244,16.105,5.705c2.31,0.7,3.174-2.767,5.245-21.066l0,0c4.784-42.269,2.588-71.422-6.438-85.477
		C730.59,678.799,711.589,672.003,691.131,675.297z"/>
	<path d="M782.375,897.293c4.93,4.93,59.165,8.999,74.964,5.625v0c97.567-20.84,66.29-190.343-81.269-93.776
		C776.16,810.688,781.059,895.977,782.375,897.293z"/>
	<path d="M688.301,809.275c-31.24-5.958-62.735,5.715-75.979,34.171c-19.2,41.257,14.358,107.137,98.485,86.784h0
		C770.016,915.906,770.783,825.007,688.301,809.275z"/>
	<path d="M519.437,819.646c9.12,12.009,9.903,10.948,9.116-12.349v0c-1.093-32.379-6.987-36.907-32.961-65.278
		c6.076-11.054,6.407-11.655,12.477-22.699c-6.527-47.005-7.794-51.909-1.293-105.059c1.111-9.079-0.181-5.359-12.574-14.1
		c-10.53-7.427-33.01-20.528-50.305-55.615c-12.461-25.28-23.749-23.905-58.187-24.949c-9.019,60.282-11.433,113.509,32.098,180.853
		C447.652,746.621,502.704,797.612,519.437,819.646z"/>
	<path d="M1369.254,474.16c2.615-2.02,15.162-3.298,17.786-5.276c2.627-1.981,11.489-2.775,18.35-6.355
		c2.624-1.369,5.38-2.494,6.124-2.5c4.165-0.034,35.783-21.918,44.892-31.072c20.917-21.02,25.014-37.052,22.061-86.324
		c-6.41-106.95-40.439-133.562-88.759-149.269c-76.27-24.792-127.552-130.959-208.092-154.478
		c-13.934-4.069-62.744-3.894-84.482,0.303c-133.435,25.763-84.643,151.429-3.138,132.514
		c45.342-10.523,110.462-41.871,116.337-35.701c0.632,0.664,0.388,6.409-0.543,12.768c-2.247,15.352-0.995,22.086,5.477,29.457
		c10.192,11.608,30.043,60.398,28.294,69.541c-1.436,7.504-14.377-0.418-20.171,15.846c-17.586,49.361,66.682,70.712,56.936,156.387
		c-17.011-29.092-26.081-52.069-36.877-62.805c-14.979-14.894-53.869-35.906-75.379-35.906c-10.057,0-42.475,6.576-48.227,9.783
		c-0.191,0.107-21.77,84.861-23.36,86.611c-1.419,1.561-15.679-6.639-18.849-8.355c-0.059-18.913,0.802-20.007-6.571-31.347
		c-14.1-21.687-30.256-37.539-93.093-8.775c-43.599,19.958-72.832,17.343-79.371-29.404c-6.361-45.468,17.404-119.131,3.76-183.919
		C877.486,37.771,778.282,8.876,712.918,40.359c-29.521,14.221-45.921,48.386-57.984,77.108
		c-14.097,33.564-20.751,70.205-23.075,106.397c-3.666,57.083,2.666,120.246,43.663,154.933
		c26.645,22.544,61.843,27.312,95.379,21.571c12.383-2.12,24.531-5.514,36.352-9.744c9.076-3.248,18.255-6.367,26.847-10.787
		c7.959-4.094,15.261-9.2,23.32-13.195c5.566-2.759,15.365-8.769,18.352-0.16c1.393,4.015,1.755,8.466,2.636,12.61
		c6.985,32.847,9.393,28.018-5.677,34.788c-58.077,26.089-82.588,23.12-93.214,83.487c-6.548,37.198-4.189,104.535,41.1,126.622
		c24.333,11.867,80.077,11.586,113.609-0.572c72.605-26.326,98.981-79.786,141.566-145.81c6.901,0.76,104.919,14.994,110.089,19.869
		c3.287,3.1,3.171,3.275-4.447,6.705c-24.425,11.001-28.788,9.683-93.783,7.901c-32.888,90.172-68.883,81.862-68.719,132.904
		c0.03,9.293,1.03,19.617,2.223,22.942c2.924,8.151,6.907,63.852-16.537,98.812c-5.696,8.494-2.368,51.746-1.302,52.813
		c0.739,0.739,3.856-0.82,6.926-3.464c63.504-54.692,126.151-95.738,147.812-128.418c30.88-46.588,12.89-95.291,22.881-137.838
		c15.964,30.065,35.509,59.592,37.759,59.624c11.773,0.169,57.609,7.018,85.394-3.636c46.448-17.81,104.562-111.134,108.678-118.945
		c2.205-4.185,2.135-4.241-3.737-2.988c-3.39,0.723-79.454,11.015-75.348,6.688C1339.625,484.315,1368.187,474.984,1369.254,474.16z
		"/>
	<path d="M337.45,509.818c-2.978,0-10.788-7.113,43.813-10.643c44.063-2.849,38.124-8.926,63.612-39.947
		c4.207,20.763,5.89,31.233,17.348,53.498c36.3,70.539,168.373,128.204,224.063,114.587h0
		c44.35-10.844,56.344-61.881,56.713-107.713c0.887-110.144-89.627-97.85-209.207-164.577c-5.235-2.921-28.383-5.468-38.702-4.258
		c-27.873,3.268-39.094,19.664-49.796,44.022c-6.495,14.783-5.304,1.343-11.407,6.408c-4.795,3.979-16.971-16.522-20.522-34.552
		c-3.215-16.33-5.455-22.319-12.081-32.305c-15.721-23.695-70.081-22.899-100.401-6.494
		c-47.478,25.689-57.883,85.486-28.971,120.768c6.509,7.943,11.763,10.423,33.059,15.605c48.031,11.688-6.773,15.646-15.233,14.529
		c-30.397-4.013-53.363-31.703-57.574-69.418l-1.191-10.671c-8.877-0.952-20.085-2.278-40.713-3.648
		c-26.823-1.781-11.023-4.309-7.237-4.328c37.797-0.19,81.598-33.689,92.701-86.114c3.445-16.266,5.67-45.265,3.868-50.418
		c-1.635-4.676-10.38-5.8-10.38-1.334c0,3.347-3.615,3.429-8.054,0.183c-3.335-2.439-3.337-2.727-0.074-15.562
		c11.178-43.982,55.394-62.439,48.864-76.772c-2.459-5.398-0.689-17.012,2.796-18.349c1.336-0.513,11.096,1.855,21.689,5.262
		c82.043,26.385,114.746,19.622,140.773,16.596c7.626-47.6,30.923-106.235-45.868-121.401
		c-31.961-6.312-108.957,0.971-128.436,12.15c-12.991,7.455-29.165,21.262-57.479,49.069
		c-58.474,57.425-58.811,57.667-119.163,85.77c-31.394,14.619-55.691,35.782-67.667,58.94
		c-12.197,23.586-27.532,82.633-30.32,116.748c-10.317,126.248,197.926,75.122,130.89,107.487
		c-13.382,6.461-34.441,2.836-71.433,4.867c24.175,40.628,99,119.223,161.25,135.253c20.944,5.393,54.001,5.849,67.585,0.931
		c8.401-3.041,20.352-11.034,25.409-16.993c4.545-5.355,10.658-20.731,12.955-32.581C357.009,543.37,346.782,509.818,337.45,509.818
		z"/>
	<path d="M1053.657,1245.847c43.151,4.043,39.809,3.815,31.056-23.717c-22.583-71.032-51.46-59.859-61.259-120.053
		c-4.771-29.303-10.884-46.069-20.634-56.583c-2.418-2.608-4.396-5.35-4.396-6.093c0-2.607-7.213-1.313-15.818,2.838
		c-12.777,6.164-48.381,32.323-61.549,38.899c-11.038,5.511-27.45,10.978-28.826,9.602c-2.275-2.275,26.107-28.657,60.258-70.236
		c3.519-4.284,26.212-44.724,26.358-77.026c0.012-2.728-1.058-2.68-12.881,0.578c-22.14,6.101-44.448,24.644-52.718,24.622
		c-1.762-0.004-5.475-5.098-9.658-13.247c-14.358-27.969-27.58-33.132-68.367-26.699c-66.146,10.434-36.598,25.829-62.549,51.39
		l-8.779,8.647c-5.762-2.711-11.634-4.445-26.341-19.148c-13.153-13.15-22.638-28.139-111.927-12.508
		c-5.3,0.928-5.608,1.468-7.559,13.282c-6.409,38.807,8.81,46.453-38.364,15.254c-18.514-12.244-33.973-21.953-34.352-21.573
		c-0.72,0.72,8.529,19.925,15.492,32.169c25.263,44.425,71.877,73.201,97.712,90.715l-5.699,1.529
		c-9.139,2.453-33.404,0.253-42.733-3.875c-23.528-10.407-73.901-91.017-73.901-91.017c-2.333,0.025-32.009,43.666-40.252,85.359
		c-15.556,78.668-70.622,111.518-81.965,185.859c-5.918,38.789,3.093,87.698,3.821,89.7c0.647,1.779,4.672-1.165,13.307-9.734
		c13.11-13.009,14.202-12.817,10.499,1.848c-11.75,46.524-18.925,133.161,9.386,172.52c15.307,21.282,36.394,45.646,61.933,51.611
		c4.395,1.026,4.59,0.674,7.092-12.828c3.74-20.186,3.432-55.643-0.6-69.019c-5.043-16.73-3.389-7.786-11.019-31.825
		c-4.906-15.457-4.943-15.875-1.617-18.309c3.366-2.464,15.524-3.758,16.421,2.558c0.948,6.674,3.604,4.629,12.706-9.782
		c56.66-89.711,57.167-91.63,49.981-70.26c-48.39,143.896-56.842,297.91,88.745,258.021c17.499-4.795,15.719-1.495,21.408-39.695
		c9.545-64.102-3.329-94.752-16.488-168.963c5.931,5.088,18.3,14.843,27.241,32.726c8.079,16.158,17.692,32.192,19.302,32.192
		c1.065,0,27.106-35.304,27.583-141.396c0.157-34.99,2.717-40.208-21.905-65.854c-19.74-20.562-27.395-41.783-26.33-42.849
		c0.586-0.586,9.716,0.422,20.288,2.241c11.289,1.942,27.664,3.293,39.676,3.273c18.524-0.03,28.333,1.548,54.246-23.246
		c12.988-12.427,30.713-25.998,37.213-28.493c5.759-2.21-4.089,17.281-6.927,25.093c-20.605,56.723-66.053,62.213-76.482,97.333
		c-14.429,48.587,27.136,225.682,28.201,226.748c6.601,6.601,21.214-45.263,37.019-66.189c6.215-8.228,23.367-27.567,23.941-26.993
		c0.692,0.692-4.952,23.161-11.026,43.889c-11.206,38.247-15.525,66.852-14.499,96.042c0.464,13.206,1.661,26.077,2.66,28.601
		c2.37,5.988,35.501,24.773,68.611,24.739c14.697-0.014,17.086-0.511,25.373-5.264v0c24.689-14.16,39.165-59.813,43.23-80.09
		c3.175-15.836,3.332-15.878,18.104-4.849c22.925,17.115,38.343,22.685,53.673,19.389c23.138-4.975,21.98-2.565,28.429-15.278
		c25.656-50.577,28.525-121.685,19.265-173.495C1086.218,1311.604,1075.496,1291.583,1053.657,1245.847z"/>
</g>
</svg>
